<svg width="44" height="44" viewBox="0 0 44 44" fill="none" xmlns="http://www.w3.org/2000/svg">
<mask id="path-1-inside-1_130_98429" fill="white">
<path d="M0 22C0 9.84974 9.84974 0 22 0V0C34.1503 0 44 9.84974 44 22V22C44 34.1503 34.1503 44 22 44V44C9.84974 44 0 34.1503 0 22V22Z"/>
</mask>
<path d="M0 22C0 9.84974 9.84974 0 22 0V0C34.1503 0 44 9.84974 44 22V22C44 34.1503 34.1503 44 22 44V44C9.84974 44 0 34.1503 0 22V22Z" fill="white" fill-opacity="0.08"/>
<path d="M0 22M44 22M44 22M0 22M22 0M44 22M22 44M0 22M22 44V43C10.402 43 1 33.598 1 22H0H-1C-1 34.7025 9.29745 45 22 45V44ZM44 22H43C43 33.598 33.598 43 22 43V44V45C34.7025 45 45 34.7025 45 22H44ZM22 0V1C33.598 1 43 10.402 43 22H44H45C45 9.29745 34.7025 -1 22 -1V0ZM22 0V-1C9.29745 -1 -1 9.29745 -1 22H0H1C1 10.402 10.402 1 22 1V0Z" fill="white" fill-opacity="0.12" mask="url(#path-1-inside-1_130_98429)"/>
<path d="M15.668 22H28.3346" stroke="#CCCCCC" stroke-width="1.58333" stroke-linecap="round" stroke-linejoin="round"/>
<path d="M15.668 17.25H28.3346" stroke="#CCCCCC" stroke-width="1.58333" stroke-linecap="round" stroke-linejoin="round"/>
<path d="M15.668 26.75H28.3346" stroke="#CCCCCC" stroke-width="1.58333" stroke-linecap="round" stroke-linejoin="round"/>
</svg>
