<svg width="36" height="32" viewBox="0 0 36 32" fill="none" xmlns="http://www.w3.org/2000/svg">
<path d="M7.6 32C6.6 32 5.75 31.65 5.05 30.95C4.35 30.25 4 29.4 4 28.4C4 27.7 4.2 27.0417 4.6 26.425C5 25.8083 5.53333 25.3667 6.2 25.1L14 22V17.5C12.2 19.6 10.1083 21.2083 7.725 22.325C5.34167 23.4417 2.76667 24 0 24V20C2.26667 20 4.325 19.5333 6.175 18.6C8.025 17.6667 9.7 16.3333 11.2 14.6L13.9 11.4C14.3 10.9333 14.7667 10.5833 15.3 10.35C15.8333 10.1167 16.4 10 17 10H19C19.6 10 20.1667 10.1167 20.7 10.35C21.2333 10.5833 21.7 10.9333 22.1 11.4L24.8 14.6C26.3 16.3333 27.975 17.6667 29.825 18.6C31.675 19.5333 33.7333 20 36 20V24C33.2333 24 30.6583 23.4417 28.275 22.325C25.8917 21.2083 23.8 19.6 22 17.5V22L29.8 25.1C30.4667 25.3667 31 25.8083 31.4 26.425C31.8 27.0417 32 27.7 32 28.4C32 29.4 31.65 30.25 30.95 30.95C30.25 31.65 29.4 32 28.4 32H14V31C14 30.1333 14.2833 29.4167 14.85 28.85C15.4167 28.2833 16.1333 28 17 28H23C23.3 28 23.5417 27.9083 23.725 27.725C23.9083 27.5417 24 27.3 24 27C24 26.7 23.9083 26.4583 23.725 26.275C23.5417 26.0917 23.3 26 23 26H17C15.6 26 14.4167 26.4833 13.45 27.45C12.4833 28.4167 12 29.6 12 31V32H7.6ZM18 8C16.9 8 15.9583 7.60833 15.175 6.825C14.3917 6.04167 14 5.1 14 4C14 2.9 14.3917 1.95833 15.175 1.175C15.9583 0.391667 16.9 0 18 0C19.1 0 20.0417 0.391667 20.825 1.175C21.6083 1.95833 22 2.9 22 4C22 5.1 21.6083 6.04167 20.825 6.825C20.0417 7.60833 19.1 8 18 8Z" fill="#F2CA50"/>
</svg>
