<svg width="26" height="26" viewBox="0 0 26 26" fill="none" xmlns="http://www.w3.org/2000/svg">
<path d="M12.3522 3.48866C12.3983 3.40492 12.466 3.33509 12.5483 3.28645C12.6306 3.23781 12.7244 3.21216 12.82 3.21216C12.9156 3.21216 13.0095 3.23781 13.0918 3.28645C13.1741 3.33509 13.2418 3.40492 13.2879 3.48866L16.4413 9.4749C16.5165 9.61352 16.6214 9.73376 16.7486 9.827C16.8758 9.92025 17.022 9.98417 17.1768 10.0142C17.3317 10.0442 17.4912 10.0396 17.644 10.0007C17.7968 9.96171 17.9391 9.88941 18.0607 9.78896L22.6294 5.87504C22.7171 5.8037 22.8252 5.76204 22.9381 5.75604C23.051 5.75004 23.1628 5.78002 23.2576 5.84165C23.3524 5.90329 23.4252 5.9934 23.4654 6.09903C23.5057 6.20466 23.5115 6.32034 23.4818 6.42944L20.4545 17.3743C20.3927 17.5983 20.2596 17.796 20.0753 17.9375C19.891 18.079 19.6657 18.1565 19.4333 18.1584H6.20783C5.97531 18.1568 5.74968 18.0793 5.56518 17.9378C5.38068 17.7963 5.24739 17.5985 5.18555 17.3743L2.15931 6.43051C2.12967 6.32141 2.13541 6.20572 2.1757 6.1001C2.21599 5.99447 2.28876 5.90436 2.38353 5.84272C2.4783 5.78108 2.59018 5.75111 2.70307 5.75711C2.81596 5.76311 2.92404 5.80477 3.01174 5.87611L7.57941 9.79002C7.70097 9.89048 7.84326 9.96278 7.99608 10.0017C8.14889 10.0407 8.30843 10.0453 8.46324 10.0153C8.61806 9.98524 8.7643 9.92131 8.89148 9.82807C9.01866 9.73483 9.12361 9.61458 9.19881 9.47597L12.3522 3.48866Z" stroke="#A78BFA" stroke-width="2.13642" stroke-linecap="round" stroke-linejoin="round"/>
<path d="M5.33984 22.4324H20.2948" stroke="#A78BFA" stroke-width="2.13642" stroke-linecap="round" stroke-linejoin="round"/>
</svg>
