<svg width="26" height="26" viewBox="0 0 26 26" fill="none" xmlns="http://www.w3.org/2000/svg">
<path d="M12.3094 2.45148C12.3562 2.3569 12.4286 2.27729 12.5182 2.22163C12.6079 2.16597 12.7113 2.13647 12.8168 2.13647C12.9224 2.13647 13.0258 2.16597 13.1154 2.22163C13.2051 2.27729 13.2774 2.3569 13.3242 2.45148L15.7918 7.44963C15.9543 7.77861 16.1943 8.06322 16.4911 8.27905C16.7878 8.49487 17.1325 8.63547 17.4956 8.68876L23.014 9.49632C23.1185 9.51147 23.2168 9.55558 23.2976 9.62365C23.3784 9.69173 23.4385 9.78105 23.4712 9.88153C23.5038 9.982 23.5078 10.0896 23.4825 10.1922C23.4572 10.2948 23.4037 10.3882 23.328 10.462L19.3372 14.3481C19.074 14.6046 18.8771 14.9212 18.7634 15.2707C18.6497 15.6201 18.6226 15.992 18.6845 16.3542L19.6267 21.8448C19.6451 21.9493 19.6338 22.0569 19.5941 22.1553C19.5543 22.2537 19.4877 22.339 19.4018 22.4014C19.316 22.4637 19.2143 22.5007 19.1084 22.5081C19.0026 22.5154 18.8967 22.4929 18.8031 22.443L13.8701 19.8494C13.545 19.6787 13.1834 19.5896 12.8163 19.5896C12.4492 19.5896 12.0875 19.6787 11.7625 19.8494L6.83058 22.443C6.73693 22.4926 6.63125 22.5149 6.52556 22.5074C6.41986 22.4999 6.3184 22.4628 6.2327 22.4005C6.14701 22.3382 6.08052 22.2531 6.04081 22.1548C6.0011 22.0566 5.98975 21.9492 6.00806 21.8448L6.94915 16.3553C7.01132 15.9929 6.98439 15.6208 6.87068 15.2711C6.75697 14.9214 6.55991 14.6047 6.29648 14.3481L2.30565 10.4631C2.22937 10.3894 2.17532 10.2958 2.14965 10.1929C2.12398 10.09 2.12772 9.98195 2.16046 9.88108C2.19319 9.78021 2.25359 9.69057 2.33479 9.62235C2.41598 9.55414 2.5147 9.5101 2.6197 9.49525L8.137 8.68876C8.50047 8.63588 8.84564 8.49547 9.14281 8.27962C9.43998 8.06376 9.68025 7.77893 9.84293 7.44963L12.3094 2.45148Z" stroke="#CCCCCC" stroke-width="2.13642" stroke-linecap="round" stroke-linejoin="round"/>
</svg>
