<svg width="26" height="26" viewBox="0 0 26 26" fill="none" xmlns="http://www.w3.org/2000/svg">
<path d="M4.27107 14.9548C4.06893 14.9555 3.87074 14.8988 3.69953 14.7914C3.52832 14.6839 3.39112 14.5301 3.30386 14.3477C3.21661 14.1654 3.18288 13.962 3.2066 13.7613C3.23032 13.5605 3.31052 13.3706 3.43787 13.2137L14.0131 2.31792C14.0925 2.22636 14.2006 2.16448 14.3197 2.14245C14.4388 2.12042 14.5619 2.13954 14.6687 2.19669C14.7756 2.25383 14.8598 2.34559 14.9076 2.4569C14.9554 2.56822 14.9639 2.69249 14.9318 2.8093L12.8808 9.23992C12.8204 9.40178 12.8001 9.57589 12.8216 9.74732C12.8432 9.91876 12.9061 10.0824 13.0048 10.2242C13.1036 10.366 13.2352 10.4817 13.3885 10.5615C13.5418 10.6412 13.7122 10.6826 13.885 10.682H21.3624C21.5646 10.6813 21.7628 10.738 21.934 10.8455C22.1052 10.9529 22.2424 11.1068 22.3296 11.2891C22.4169 11.4715 22.4506 11.6748 22.4269 11.8756C22.4032 12.0763 22.323 12.2662 22.1956 12.4232L11.6204 23.3189C11.541 23.4105 11.4329 23.4724 11.3138 23.4944C11.1947 23.5164 11.0716 23.4973 10.9648 23.4401C10.8579 23.383 10.7737 23.2912 10.7259 23.1799C10.6781 23.0686 10.6696 22.9443 10.7017 22.8275L12.7527 16.3969C12.8131 16.2351 12.8334 16.0609 12.8118 15.8895C12.7902 15.7181 12.7274 15.5544 12.6286 15.4126C12.5299 15.2708 12.3982 15.1551 12.245 15.0754C12.0917 14.9956 11.9213 14.9543 11.7485 14.9548H4.27107Z" stroke="#F5C518" stroke-width="2.13642" stroke-linecap="round" stroke-linejoin="round"/>
</svg>
