<svg width="36" height="33" viewBox="0 0 36 33" fill="none" xmlns="http://www.w3.org/2000/svg">
<g filter="url(#filter0_d_130_97637)">
<path d="M8 24.7V22.75C8.48333 22.75 8.89583 22.675 9.2375 22.525C9.57917 22.375 9.925 22.2125 10.275 22.0375C10.625 21.8625 11.0125 21.7042 11.4375 21.5625C11.8625 21.4208 12.3875 21.35 13.0125 21.35C13.6375 21.35 14.1542 21.4208 14.5625 21.5625C14.9708 21.7042 15.35 21.8625 15.7 22.0375C16.05 22.2125 16.4 22.375 16.75 22.525C17.1 22.675 17.5167 22.75 18 22.75C18.4833 22.75 18.9 22.675 19.25 22.525C19.6 22.375 19.95 22.2125 20.3 22.0375C20.65 21.8625 21.0333 21.7042 21.45 21.5625C21.8667 21.4208 22.3875 21.35 23.0125 21.35C23.6375 21.35 24.1583 21.4208 24.575 21.5625C24.9917 21.7042 25.375 21.8625 25.725 22.0375C26.075 22.2125 26.425 22.375 26.775 22.525C27.125 22.675 27.5333 22.75 28 22.75V24.7C27.3667 24.7 26.8375 24.625 26.4125 24.475C25.9875 24.325 25.6 24.1625 25.25 23.9875C24.9 23.8125 24.5583 23.6542 24.225 23.5125C23.8917 23.3708 23.4833 23.3 23 23.3C22.5333 23.3 22.1292 23.3708 21.7875 23.5125C21.4458 23.6542 21.1042 23.8125 20.7625 23.9875C20.4208 24.1625 20.0375 24.325 19.6125 24.475C19.1875 24.625 18.65 24.7 18 24.7C17.35 24.7 16.8125 24.625 16.3875 24.475C15.9625 24.325 15.5792 24.1625 15.2375 23.9875C14.8958 23.8125 14.5583 23.6542 14.225 23.5125C13.8917 23.3708 13.4875 23.3 13.0125 23.3C12.5375 23.3 12.1292 23.3708 11.7875 23.5125C11.4458 23.6542 11.1 23.8125 10.75 23.9875C10.4 24.1625 10.0125 24.325 9.5875 24.475C9.1625 24.625 8.63333 24.7 8 24.7ZM8 20.25V18.3C8.48333 18.3 8.89583 18.225 9.2375 18.075C9.57917 17.925 9.925 17.7625 10.275 17.5875C10.625 17.4125 11.0125 17.2542 11.4375 17.1125C11.8625 16.9708 12.3875 16.9 13.0125 16.9C13.6375 16.9 14.1542 16.9708 14.5625 17.1125C14.9708 17.2542 15.35 17.4125 15.7 17.5875C16.05 17.7625 16.4 17.925 16.75 18.075C17.1 18.225 17.5167 18.3 18 18.3C18.4833 18.3 18.9 18.225 19.25 18.075C19.6 17.925 19.95 17.7625 20.3 17.5875C20.65 17.4125 21.0333 17.2542 21.45 17.1125C21.8667 16.9708 22.3833 16.9 23 16.9C23.6333 16.9 24.1583 16.9708 24.575 17.1125C24.9917 17.2542 25.375 17.4125 25.725 17.5875C26.075 17.7625 26.425 17.925 26.775 18.075C27.125 18.225 27.5333 18.3 28 18.3V20.25C27.3667 20.25 26.8375 20.175 26.4125 20.025C25.9875 19.875 25.6 19.7125 25.25 19.5375C24.9 19.3625 24.5583 19.2042 24.225 19.0625C23.8917 18.9208 23.4833 18.85 23 18.85C22.5167 18.85 22.1042 18.9208 21.7625 19.0625C21.4208 19.2042 21.0792 19.3625 20.7375 19.5375C20.3958 19.7125 20.0167 19.875 19.6 20.025C19.1833 20.175 18.65 20.25 18 20.25C17.35 20.25 16.8125 20.175 16.3875 20.025C15.9625 19.875 15.5792 19.7125 15.2375 19.5375C14.8958 19.3625 14.5583 19.2042 14.225 19.0625C13.8917 18.9208 13.4875 18.85 13.0125 18.85C12.5375 18.85 12.1292 18.9208 11.7875 19.0625C11.4458 19.2042 11.1 19.3625 10.75 19.5375C10.4 19.7125 10.0125 19.875 9.5875 20.025C9.1625 20.175 8.63333 20.25 8 20.25ZM8 15.8V13.85C8.48333 13.85 8.89583 13.775 9.2375 13.625C9.57917 13.475 9.925 13.3125 10.275 13.1375C10.625 12.9625 11.0125 12.8042 11.4375 12.6625C11.8625 12.5208 12.3875 12.45 13.0125 12.45C13.6375 12.45 14.1542 12.5208 14.5625 12.6625C14.9708 12.8042 15.35 12.9625 15.7 13.1375C16.05 13.3125 16.4 13.475 16.75 13.625C17.1 13.775 17.5167 13.85 18 13.85C18.4833 13.85 18.9 13.775 19.25 13.625C19.6 13.475 19.95 13.3125 20.3 13.1375C20.65 12.9625 21.0333 12.8042 21.45 12.6625C21.8667 12.5208 22.3833 12.45 23 12.45C23.6333 12.45 24.1583 12.5208 24.575 12.6625C24.9917 12.8042 25.375 12.9625 25.725 13.1375C26.075 13.3125 26.425 13.475 26.775 13.625C27.125 13.775 27.5333 13.85 28 13.85V15.8C27.3667 15.8 26.8375 15.725 26.4125 15.575C25.9875 15.425 25.6 15.2625 25.25 15.0875C24.9 14.9125 24.5583 14.7542 24.225 14.6125C23.8917 14.4708 23.4833 14.4 23 14.4C22.5333 14.4 22.1292 14.4708 21.7875 14.6125C21.4458 14.7542 21.1042 14.9125 20.7625 15.0875C20.4208 15.2625 20.0375 15.425 19.6125 15.575C19.1875 15.725 18.65 15.8 18 15.8C17.35 15.8 16.8125 15.725 16.3875 15.575C15.9625 15.425 15.5792 15.2625 15.2375 15.0875C14.8958 14.9125 14.5583 14.7542 14.225 14.6125C13.8917 14.4708 13.4875 14.4 13.0125 14.4C12.5375 14.4 12.1292 14.4708 11.7875 14.6125C11.4458 14.7542 11.1 14.9125 10.75 15.0875C10.4 15.2625 10.0125 15.425 9.5875 15.575C9.1625 15.725 8.63333 15.8 8 15.8ZM8 11.35V9.4C8.48333 9.4 8.89583 9.325 9.2375 9.175C9.57917 9.025 9.925 8.8625 10.275 8.6875C10.625 8.5125 11.0125 8.35417 11.4375 8.2125C11.8625 8.07083 12.3875 8 13.0125 8C13.6375 8 14.1542 8.07083 14.5625 8.2125C14.9708 8.35417 15.35 8.5125 15.7 8.6875C16.05 8.8625 16.4 9.025 16.75 9.175C17.1 9.325 17.5167 9.4 18 9.4C18.4833 9.4 18.9 9.325 19.25 9.175C19.6 9.025 19.95 8.8625 20.3 8.6875C20.65 8.5125 21.0333 8.35417 21.45 8.2125C21.8667 8.07083 22.3833 8 23 8C23.6333 8 24.1583 8.07083 24.575 8.2125C24.9917 8.35417 25.375 8.5125 25.725 8.6875C26.075 8.8625 26.425 9.025 26.775 9.175C27.125 9.325 27.5333 9.4 28 9.4V11.35C27.3667 11.35 26.8375 11.275 26.4125 11.125C25.9875 10.975 25.6 10.8125 25.25 10.6375C24.9 10.4625 24.5583 10.3042 24.225 10.1625C23.8917 10.0208 23.4833 9.95 23 9.95C22.5333 9.95 22.1292 10.0208 21.7875 10.1625C21.4458 10.3042 21.1042 10.4625 20.7625 10.6375C20.4208 10.8125 20.0375 10.975 19.6125 11.125C19.1875 11.275 18.65 11.35 18 11.35C17.35 11.35 16.8125 11.275 16.3875 11.125C15.9625 10.975 15.5792 10.8125 15.2375 10.6375C14.8958 10.4625 14.5583 10.3042 14.225 10.1625C13.8917 10.0208 13.4875 9.95 13.0125 9.95C12.5375 9.95 12.1292 10.0208 11.7875 10.1625C11.4458 10.3042 11.1 10.4625 10.75 10.6375C10.4 10.8125 10.0125 10.975 9.5875 11.125C9.1625 11.275 8.63333 11.35 8 11.35Z" fill="#F2CA50"/>
</g>
<defs>
<filter id="filter0_d_130_97637" x="0" y="0" width="36" height="32.7002" filterUnits="userSpaceOnUse" color-interpolation-filters="sRGB">
<feFlood flood-opacity="0" result="BackgroundImageFix"/>
<feColorMatrix in="SourceAlpha" type="matrix" values="0 0 0 0 0 0 0 0 0 0 0 0 0 0 0 0 0 0 127 0" result="hardAlpha"/>
<feOffset/>
<feGaussianBlur stdDeviation="4"/>
<feComposite in2="hardAlpha" operator="out"/>
<feColorMatrix type="matrix" values="0 0 0 0 0.94902 0 0 0 0 0.792157 0 0 0 0 0.313726 0 0 0 0.4 0"/>
<feBlend mode="normal" in2="BackgroundImageFix" result="effect1_dropShadow_130_97637"/>
<feBlend mode="normal" in="SourceGraphic" in2="effect1_dropShadow_130_97637" result="shape"/>
</filter>
</defs>
</svg>
